# xmcd
#
# Track frame offsets:
#	150
#	35130
#	54745
#	75026
#	87959
#	118357
#
# Disc length: 2328 seconds
#
# Revision: 1
# Processed by: cddbd v1.5.1PL0 Copyright (c) Steve Scherf et al.
# Submitted via: audiograbber 1.81.03
#
DISCID=47091606
DTITLE=Delta Blues Band With Billy Cross - No Overdubs
DYEAR=1979
DGENRE=Blues
TTITLE0=Key To The Highway
TTITLE1=Backwater Boogie
TTITLE2=Mellow Down Easy
TTITLE3=Bad News
TTITLE4=We We Hour
TTITLE5=Dana Blues
EXTD=
EXTT0=
EXTT1=
EXTT2=
EXTT3=
EXTT4=
EXTT5=
PLAYORDER=
